<svg width="60" height="60" viewBox="0 0 60 60" fill="none" xmlns="http://www.w3.org/2000/svg">
<g clip-path="url(#clip0)">
<path d="M56.8322 26.3282C54.9999 20.4984 53.8223 17.799 53.2833 16.7086L53.283 16.7082C52.8497 15.8156 51.7514 13.8947 51.7077 13.8184C51.5539 13.6306 47.7399 9.06645 38.5475 5.69054L37.3329 8.99763C41.6793 10.5939 44.6543 12.4372 46.4971 13.8231C41.4068 12.3052 35.3541 11.3763 29.9934 11.3763C24.6261 11.3763 18.5661 12.3079 13.4721 13.8291C15.1782 12.5632 18.2808 10.6037 22.6539 8.99763L21.4392 5.69054C12.2469 9.06645 8.43286 13.6306 8.27901 13.8184C8.27901 13.8184 7.37297 15.281 6.61172 16.887C6.15547 17.8495 4.97356 20.0473 3.14303 26.3662C0.847202 34.2934 0.0318185 45.4982 -7.62939e-06 45.9465C0.405276 46.833 5.10286 54.3096 17.7438 54.3096L21.2077 49.2937C24.0668 50.0354 27.0163 50.4106 29.9936 50.4106C32.9773 50.4106 35.9326 50.0337 38.7971 49.2892L42.2396 54.3096C55.132 54.3096 59.3403 47.0875 60 45.9263C59.949 45.3925 58.6722 32.1831 56.8322 26.3282ZM53.4581 47.6823C50.7766 49.5802 47.6262 50.616 44.0826 50.7671L42.3054 48.1754C44.7565 47.2517 47.1081 46.0498 49.3179 44.5789L47.3657 41.6461C44.9008 43.2868 42.2396 44.5563 39.4541 45.4354V45.4388C39.4541 45.4388 34.8415 46.8874 29.9937 46.8874C25.1459 46.8874 20.5463 45.443 20.5463 45.443V45.4394C17.756 44.5602 15.0904 43.2893 12.6217 41.6461L10.6694 44.5788C12.8831 46.0523 15.2392 47.2558 17.695 48.1801L15.9084 50.7671C12.3632 50.6167 9.21148 49.5808 6.52905 47.6822C5.03357 46.6237 4.0701 45.5507 3.60703 44.973C3.81138 42.5599 4.64755 33.8366 6.52764 27.3464C7.93867 22.4756 8.91272 20.1962 9.44448 19.0957C9.44448 19.0957 23.0803 14.8993 29.9937 14.8993C36.9015 14.8993 45.3298 16.6155 50.4968 19.0738C51.0554 20.3466 52.05 22.8623 53.4712 27.3844C54.9705 32.1552 56.0889 42.2932 56.3678 44.9883C55.8979 45.5721 54.9388 46.6343 53.4581 47.6823Z" fill="#EDE8E8"/>
<path d="M18.325 29.7112H21.8482V35.5831H18.325V29.7112Z" fill="white"/>
<path d="M38.139 29.7112H41.6622V35.5831H38.139V29.7112Z" fill="#FFF7F7"/>
</g>
<defs>
<clipPath id="clip0">
<rect width="60" height="60" fill="white"/>
</clipPath>
</defs>
</svg>
