<svg width="60" height="60" viewBox="0 0 60 60" fill="none" xmlns="http://www.w3.org/2000/svg">
<path d="M43.4418 0H16.5575C7.42769 0 0 7.42804 0 16.5578V43.4422C0 52.5723 7.42769 60 16.5575 60H43.4418C52.5723 60 60 52.572 60 43.4422V16.5578C60.0004 7.42804 52.5723 0 43.4418 0ZM54.6769 43.4422C54.6769 49.6369 49.6369 54.6765 43.4422 54.6765H16.5575C10.3631 54.6769 5.32349 49.6369 5.32349 43.4422V16.5578C5.32349 10.3634 10.3631 5.32349 16.5575 5.32349H43.4418C49.6366 5.32349 54.6765 10.3634 54.6765 16.5578V43.4422H54.6769Z" fill="#DFD9D9"/>
<path d="M30 14.5402C21.475 14.5402 14.5395 21.4757 14.5395 30.0007C14.5395 38.5254 21.475 45.4605 30 45.4605C38.525 45.4605 45.4605 38.5254 45.4605 30.0007C45.4605 21.4757 38.525 14.5402 30 14.5402ZM30 40.1366C24.4107 40.1366 19.863 35.5897 19.863 30.0004C19.863 24.4107 24.4103 19.8634 30 19.8634C35.5897 19.8634 40.137 24.4107 40.137 30.0004C40.137 35.5897 35.5893 40.1366 30 40.1366Z" fill="#DFD9D9"/>
<path d="M46.1089 10.0263C45.0832 10.0263 44.0757 10.4415 43.3513 11.169C42.6234 11.893 42.205 12.901 42.205 13.9302C42.205 14.9562 42.6238 15.9637 43.3513 16.6913C44.0753 17.4153 45.0832 17.8341 46.1089 17.8341C47.1381 17.8341 48.1425 17.4153 48.87 16.6913C49.5975 15.9637 50.0128 14.9558 50.0128 13.9302C50.0128 12.901 49.5975 11.893 48.87 11.169C48.146 10.4415 47.1381 10.0263 46.1089 10.0263Z" fill="#DFD9D9"/>
</svg>
