<svg width="60" height="60" viewBox="0 0 60 60" fill="none" xmlns="http://www.w3.org/2000/svg">
<g clip-path="url(#clip0)">
<path d="M18.7509 49.5703H10.5478V23.0859H18.7509V49.5703ZM19.5694 14.648C19.5694 11.9962 17.4179 9.84375 14.7675 9.84375C12.1069 9.84375 9.96094 11.9962 9.96094 14.648C9.96094 17.3007 12.1069 19.4531 14.7675 19.4531C17.4179 19.4531 19.5694 17.3007 19.5694 14.648ZM49.4531 34.9997C49.4531 27.8902 47.9512 22.6172 39.646 22.6172C35.6552 22.6172 32.9764 24.613 31.8828 26.6885H31.875V23.0859H23.9062V49.5703H31.875V36.4206C31.875 32.9768 32.7516 29.6407 37.0203 29.6407C41.2308 29.6407 41.3672 33.5788 41.3672 36.6394V49.5703H49.4531V34.9997ZM60 52.9688V7.03125C60 3.15399 56.846 0 52.9688 0H7.03125C3.15399 0 0 3.15399 0 7.03125V52.9688C0 56.846 3.15399 60 7.03125 60H52.9688C56.846 60 60 56.846 60 52.9688ZM52.9688 4.6875C54.261 4.6875 55.3125 5.73898 55.3125 7.03125V52.9688C55.3125 54.261 54.261 55.3125 52.9688 55.3125H7.03125C5.73898 55.3125 4.6875 54.261 4.6875 52.9688V7.03125C4.6875 5.73898 5.73898 4.6875 7.03125 4.6875H52.9688Z" fill="#E9E9E9"/>
</g>
<defs>
<clipPath id="clip0">
<rect width="60" height="60" fill="white"/>
</clipPath>
</defs>
</svg>
