<svg width="70" height="70" viewBox="0 0 70 70" fill="none" xmlns="http://www.w3.org/2000/svg">
<path d="M51.5403 0H18.4529C8.10645 0 0 8.10871 0 18.4574V51.5448C0 61.8935 8.10645 70 18.4529 70H51.5403C61.8913 70 70 61.8935 70 51.5426V18.4574C70 8.10871 61.8913 0 51.5403 0ZM65.4839 51.5426C65.4839 59.4887 59.491 65.4816 51.5403 65.4816H18.4529C10.5068 65.4816 4.51613 59.491 4.51613 51.5426V18.4574C4.51613 10.509 10.5068 4.51613 18.4529 4.51613H51.5403C59.491 4.51613 65.4839 10.509 65.4839 18.4574V51.5426Z" fill="#EEEBEB"/>
<path d="M35.998 14.3207C24.3351 14.3207 18.4551 22.4136 18.4551 29.1607C18.4551 33.2478 20.0538 36.881 23.4793 38.2381C23.6238 38.2946 23.7661 38.3239 23.8993 38.3239C24.2832 38.3239 24.5926 38.0891 24.71 37.642C24.8251 37.2265 25.0916 36.1765 25.2135 35.7339C25.3761 35.1378 25.3151 34.9323 24.8613 34.4129C23.8722 33.2839 23.2377 31.8229 23.2377 29.7568C23.2377 23.7504 27.8848 18.3784 35.3274 18.3784C41.9187 18.3784 45.5406 22.2758 45.5406 27.4807C45.5406 34.3294 42.4087 40.1123 37.7593 40.1123C35.1874 40.1123 33.268 38.0552 33.8845 35.5352C34.6229 32.5252 36.0545 29.2781 36.0545 27.1081C36.0545 25.1617 34.9729 23.5426 32.7419 23.5426C30.1135 23.5426 28.0045 26.1687 28.0045 29.6913C28.0045 31.9313 28.788 33.451 28.788 33.451C28.788 33.451 26.1055 44.4659 25.6335 46.3965C24.6942 50.2375 25.4913 54.9478 25.559 55.422C25.5816 55.5913 25.7261 55.6839 25.8751 55.6839C25.9745 55.6839 26.0761 55.6433 26.1416 55.5575C26.3855 55.2549 29.5106 51.5178 30.5742 47.7829C30.879 46.7262 32.3016 41.2549 32.3016 41.2549C33.1551 42.8288 35.648 44.2129 38.3013 44.2129C46.1909 44.2129 51.5448 37.2558 51.5448 27.9368C51.5426 20.8849 45.3758 14.3207 35.998 14.3207Z" fill="#EEEBEB"/>
</svg>
