<svg width="60" height="60" viewBox="0 0 60 60" fill="none" xmlns="http://www.w3.org/2000/svg">
<path d="M60 11.8083C56.2257 11.9823 56.3081 11.9681 55.8815 12.0038L58.1168 5.62029C58.1168 5.62029 51.1395 8.18697 49.3707 8.64611C44.7253 4.47084 37.8204 4.28636 32.8839 7.32042C28.8414 9.80562 26.6716 14.0734 27.3953 19.0616C19.5277 17.9698 12.8989 14.2404 7.66525 7.95351L6.00998 5.96544L4.7731 8.23686C3.20984 11.107 2.69073 14.3888 3.311 17.4773C3.56552 18.7444 3.99811 19.9529 4.59732 21.0845L3.17734 20.5342L3.00888 22.9068C2.83813 25.3169 3.64059 28.1304 5.15579 30.432C5.58243 31.0802 6.13174 31.792 6.828 32.4942L6.09421 32.3816L6.98959 35.1003C8.1665 38.6722 10.611 41.4357 13.7833 42.972C10.6151 44.3164 8.05572 45.1743 3.84888 46.5581L0 47.8233L3.55499 49.767C4.91043 50.5081 9.70001 52.9833 14.4324 53.7258C24.9518 55.3755 36.7955 54.032 44.7688 46.8511C51.4847 40.8026 53.6883 32.199 53.2306 23.2456C53.1615 21.8901 53.5327 20.5965 54.2761 19.6036C55.7652 17.6155 59.9908 11.8216 60 11.8083ZM51.465 17.4979C50.2304 19.1463 49.612 21.2515 49.7227 23.425C50.1846 32.4562 47.7273 39.46 42.4187 44.2409C36.2173 49.8261 26.2147 52.0183 14.9767 50.2554C12.9414 49.9364 10.838 49.2218 9.09714 48.5082C12.6242 47.2946 15.3479 46.2129 19.7465 44.131L25.887 41.2247L19.1075 40.7907C15.8601 40.5829 13.1561 39.0091 11.494 36.4539C12.3766 36.4026 13.2275 36.2598 14.0749 36.0236L20.5408 34.2227L14.0208 32.6261C10.8527 31.8501 9.04678 29.9545 8.0896 28.5007C7.46109 27.5453 7.05048 26.5666 6.8042 25.6644C7.45788 25.8397 8.22006 25.9647 9.44916 26.0864L15.4839 26.6834L10.7025 22.9535C7.25738 20.2664 5.87677 16.2294 6.88888 12.3485C17.6408 23.5005 30.265 22.6624 31.5358 22.9572C31.2561 20.2403 31.2488 20.2339 31.1755 19.9753C29.5482 14.2226 33.1146 11.3016 34.7232 10.3128C38.0832 8.24785 43.4166 7.93657 47.1107 11.3387C47.9086 12.0729 48.9876 12.3618 49.9974 12.1109C50.9038 11.8857 51.6476 11.6472 52.3759 11.3877L50.8598 15.7172L52.7952 15.7186C52.43 16.2084 51.9919 16.7948 51.465 17.4979Z" fill="#FFF9F9"/>
</svg>
