<svg width="60" height="61" viewBox="0 0 60 61" fill="none" xmlns="http://www.w3.org/2000/svg">
<path d="M42.4785 28.0733L24.8047 18.4028C23.7884 17.8468 22.5873 17.8676 21.5912 18.4578C20.5945 19.0486 20 20.0923 20 21.2507V40.4255C20 41.5785 20.5908 42.6204 21.5808 43.2118C22.0978 43.5206 22.6709 43.6757 23.2452 43.6757C23.7713 43.6757 24.2987 43.5457 24.7839 43.2844L42.4584 33.7807C43.5076 33.2161 44.1625 32.1254 44.1674 30.9334C44.1717 29.7413 43.5247 28.6458 42.4785 28.0733ZM24.6881 38.0134V23.6824L37.8973 30.9102L24.6881 38.0134Z" fill="#EEEDED"/>
<path d="M59.5583 14.3011L59.5555 14.2645C59.5047 13.6206 58.9989 7.89307 56.9106 4.97986C54.4968 1.55334 51.7603 1.13708 50.4443 0.9375C50.3353 0.92102 50.2355 0.905762 50.1463 0.889893L50.0414 0.875244C42.1094 0.106201 30.1302 0.0012207 30.0103 0.000610352L29.9998 0L29.9892 0.000610352C29.8693 0.0012207 17.8902 0.106201 9.8867 0.875244L9.78096 0.889893C9.69582 0.905151 9.60198 0.919189 9.4999 0.935059C8.19894 1.13525 5.49175 1.55212 3.07111 5.10254C1.08215 7.98462 0.507198 13.5895 0.448147 14.2194L0.441281 14.3011C0.423428 14.5691 0 20.9479 0 27.3517V33.338C0 39.7418 0.423428 46.1206 0.441281 46.3892L0.444485 46.4294C0.495296 47.063 1.00066 52.6855 3.07935 55.6C5.34893 58.9117 8.21863 59.35 9.76219 59.5856C10.0062 59.6228 10.2163 59.6545 10.3596 59.6881L10.4983 59.7137C15.0782 60.2948 29.4376 60.5811 30.0465 60.5927L30.0648 60.5933L30.0831 60.5927C30.203 60.592 42.1817 60.4871 50.1138 59.718L50.2186 59.7034C50.3188 59.6857 50.4314 59.6698 50.555 59.6527C51.8487 59.4696 54.5412 59.0894 56.9284 55.5872C58.9174 52.7045 59.4928 47.0996 59.5514 46.4703L59.5583 46.3885C59.5761 46.12 60 39.7418 60 33.338V27.3517C59.9995 20.9479 59.5761 14.5697 59.5583 14.3011ZM56.4835 33.338C56.4835 39.2651 56.0953 45.3693 56.0587 45.9296C55.9095 47.4731 55.3029 51.0193 54.3338 52.4237C52.8397 54.6155 51.3048 54.8328 50.1842 54.9908C50.0488 55.0098 49.9233 55.0281 49.8098 55.047C42.1377 55.7867 30.6109 55.9003 30.0799 55.9045C29.4843 55.8929 15.335 55.6042 10.8947 55.0543C10.6672 55.0049 10.4214 54.967 10.1623 54.928C8.84805 54.7272 7.04905 54.4525 5.6657 52.4237L5.6332 52.3773C4.68106 51.0547 4.09192 47.7386 3.94223 45.9479C3.91431 45.5243 3.51606 39.3481 3.51606 33.338V27.3517C3.51606 21.4313 3.90332 15.3339 3.94086 14.762C4.11893 12.9437 4.7369 9.61243 5.6657 8.26599C7.2056 6.00769 8.82928 5.75745 9.90318 5.59204C10.0057 5.57617 10.1014 5.56152 10.1897 5.54626C17.9735 4.80286 29.5832 4.69238 29.9998 4.68811C30.4163 4.69177 42.0219 4.80286 49.7366 5.54626C49.8313 5.56213 49.9348 5.578 50.046 5.59509C51.1506 5.76294 52.82 6.01685 54.3522 8.1958L54.3663 8.21594C55.3185 9.53857 55.9076 12.9126 56.0573 14.7394C56.0839 15.1392 56.4835 21.3287 56.4835 27.3517V33.338Z" fill="#EEEDED"/>
</svg>
